<svg width="42" height="42" viewBox="0 0 42 42" fill="none" xmlns="http://www.w3.org/2000/svg">
<g clip-path="url(#clip0_1_591)">
<path d="M20.9998 41.3C32.156 41.3 41.1998 32.2562 41.1998 21.1C41.1998 9.94387 32.156 0.900024 20.9998 0.900024C9.84365 0.900024 0.799805 9.94387 0.799805 21.1C0.799805 32.2562 9.84365 41.3 20.9998 41.3Z" fill="white"/>
<path d="M4.2002 13.5999L4.8002 12.4999C5.0002 11.9999 5.8002 11.3999 6.8002 11.9999C7.7002 12.4999 7.9002 13.2999 7.4002 14.1999L7.0002 15.0999L4.2002 13.5999ZM6.8002 14.2999L7.0002 13.8999C7.3002 13.3999 7.0002 12.8999 6.5002 12.5999C6.0002 12.2999 5.4002 12.2999 5.1002 12.8999L4.9002 13.2999L6.8002 14.2999Z" fill="#006DB1"/>
<path d="M6.7002 9.6L8.1002 8L8.5002 8.3L7.6002 9.3L8.2002 9.8L9.0002 9L9.4002 9.3L8.5002 10.3L9.1002 10.9L10.1002 9.8L10.5002 10.1L9.0002 11.7L6.7002 9.6Z" fill="#006DB1"/>
<path d="M9.7002 6.59998L10.4002 6.09998L12.0002 6.89998C12.3002 7.09998 12.7002 7.29998 12.9002 7.49998C12.8002 7.39998 12.6002 7.09998 12.4002 6.79998L11.5002 5.49998L12.0002 5.09998L13.7002 7.69998L13.0002 8.19998L11.2002 7.19998C11.0002 7.09998 10.7002 6.99998 10.6002 6.79998C10.7002 6.99998 10.8002 7.19998 11.0002 7.49998L12.0002 8.89998L11.5002 9.19998L9.7002 6.59998Z" fill="#006DB1"/>
<path d="M16.6001 3.29996L17.4001 3.19996L18.5001 4.59996C18.7001 4.89996 19.0001 5.29996 19.1001 5.49996C19.1001 5.29996 19.0001 4.99996 18.9001 4.59996L18.6001 2.99996L19.2001 2.89996L19.8001 5.99996L18.9001 6.09996L17.7001 4.49996C17.6001 4.29996 17.4001 4.09996 17.3001 3.89996C17.3001 4.09996 17.4001 4.39996 17.4001 4.59996L17.7001 6.29996L17.1001 6.39996L16.6001 3.29996Z" fill="#006DB1"/>
<path d="M21.2001 4.29998C21.3001 3.19998 22.0001 2.69998 22.8001 2.79998C23.7001 2.89998 24.2001 3.49998 24.1001 4.59998C24.0001 5.69998 23.3001 6.19998 22.5001 6.09998C21.6001 5.99998 21.1001 5.39998 21.2001 4.29998ZM23.5001 4.59998C23.6001 3.79998 23.3001 3.39998 22.8001 3.39998C22.3001 3.39998 22.0001 3.69998 21.9001 4.49998C21.8001 5.29998 22.1001 5.69998 22.6001 5.69998C23.0001 5.69998 23.4001 5.39998 23.5001 4.59998Z" fill="#006DB1"/>
<path d="M26.8002 5.7L26.3002 5.5L25.8002 6.7L25.2002 6.5L26.3002 3.5L27.5002 4C28.1002 4.2 28.3002 4.7 28.1002 5.2C27.9002 5.6 27.7002 5.7 27.3002 5.8L27.5002 7.4L26.8002 7.1V5.7ZM27.0002 5.3C27.3002 5.4 27.5002 5.4 27.6002 5.1C27.7002 4.8 27.6002 4.6 27.4002 4.6L26.9002 4.4L26.6002 5.2L27.0002 5.3Z" fill="#006DB1"/>
<path d="M31.2002 6.89997C31.2002 6.79997 31.3002 6.49997 31.0002 6.29997C30.7002 6.09997 30.5002 6.19997 30.4002 6.29997C30.3002 6.39997 30.3002 6.49997 30.4002 6.69997L30.8002 7.29997C31.1002 7.69997 31.1002 7.99997 30.9002 8.39997C30.6002 8.79997 30.0002 8.99997 29.3002 8.49997C28.7002 8.09997 28.6002 7.59997 28.8002 7.19997L29.4002 7.29997C29.3002 7.49997 29.3002 7.79997 29.6002 7.99997C29.9002 8.19997 30.1002 8.19997 30.3002 7.89997C30.4002 7.79997 30.4002 7.59997 30.2002 7.39997L30.0002 7.29997C29.7002 6.89997 29.5002 6.49997 29.8002 6.09997C30.0002 5.69997 30.6002 5.49997 31.3002 5.99997C31.7002 6.29997 32.0002 6.59997 31.8002 7.09997L31.2002 6.89997Z" fill="#006DB1"/>
<path d="M33.8003 8L34.2003 8.5L33.2003 9.4L34.9003 9.3L35.4003 9.9L33.4003 10L33.1003 12.1L32.5003 11.5L32.8003 9.7L31.7003 10.7L31.3003 10.2L33.8003 8Z" fill="#006DB1"/>
<path d="M36.6003 11.5L37.6003 13.3L37.2003 13.5L36.5003 12.3L35.8003 12.7L36.4003 13.9L36.0003 14.1L35.3003 13L34.5003 13.4L35.2003 14.7L34.8003 14.9L33.8003 13.1L36.6003 11.5Z" fill="#006DB1"/>
<path d="M5.2001 22.6L5.1001 21.7L5.6001 21.6L5.9001 24L5.4001 24.1L5.3001 23.2L2.7001 23.5L2.6001 22.8L5.2001 22.6Z" fill="#006DB1"/>
<path d="M6.99986 27.5L5.19986 28.2C4.39986 28.5 3.79986 28.2 3.49986 27.4C3.19986 26.7 3.49986 26.1 4.29986 25.8L6.09986 25.1L6.29986 25.7L4.49986 26.4C3.99986 26.6 3.79986 26.8 3.89986 27.3C4.09986 27.7 4.39986 27.8 4.89986 27.6L6.69986 26.9L6.99986 27.5Z" fill="#006DB1"/>
<path d="M6.8 30.7L6.5 30.2999L5.4 31L5 30.5L7.6 28.7L8.3 29.7999C8.7 30.3999 8.5 30.8 8.1 31.1C7.7 31.3 7.4 31.3 7.1 31.1L6.3 32.5L6 31.9L6.8 30.7ZM7.2 30.4C7.4 30.6 7.6 30.7 7.8 30.5C8.1 30.3 8.1 30.1 7.9 29.9L7.6 29.4L6.9 30L7.2 30.4Z" fill="#006DB1"/>
<path d="M9.9001 31.6L10.4001 32.1L8.1001 34.3L7.6001 33.8L9.9001 31.6Z" fill="#006DB1"/>
<path d="M12.2001 34.5999C12.2001 34.4999 12.3001 34.1999 12.0001 33.9999C11.7001 33.7999 11.5001 33.8999 11.4001 33.9999C11.3001 34.0999 11.3001 34.2 11.4001 34.4L11.8001 34.9999C12.1001 35.3999 12.1001 35.6999 11.9001 36.0999C11.6001 36.4999 11.0001 36.7 10.3001 36.2C9.70006 35.8 9.70006 35.2 9.80006 34.9L10.4001 35.0999C10.3001 35.2999 10.3001 35.5999 10.6001 35.7999C10.9001 35.9999 11.1001 35.9999 11.3001 35.7999C11.4001 35.6999 11.4001 35.4999 11.2001 35.2999L11.0001 34.9C10.8001 34.5 10.5001 34.1 10.8001 33.7C11.1001 33.3 11.6001 33.0999 12.3001 33.5999C12.7001 33.8999 13.0001 34.1999 12.8001 34.7999L12.2001 34.5999Z" fill="#006DB1"/>
<path d="M14.7002 35.6L13.9002 35.3L14.1002 34.8L16.3002 35.7L16.1002 36.2L15.3002 35.9L14.3002 38.3L13.7002 38L14.7002 35.6Z" fill="#006DB1"/>
<path d="M17.4003 36L19.4003 36.4L19.3003 36.9L17.9003 36.7L17.8003 37.5L19.1003 37.7L19.0003 38.2L17.7003 38L17.5003 39.3L16.8003 39.2L17.4003 36Z" fill="#006DB1"/>
<path d="M20.6002 38C20.5002 36.9 21.1002 36.3 22.0002 36.2C22.9002 36.1 23.5002 36.7 23.6002 37.8C23.7002 38.9 23.1002 39.5 22.2002 39.6C21.3002 39.6 20.6002 39.1 20.6002 38ZM22.8002 37.9C22.7002 37.1 22.4002 36.8 21.9002 36.8C21.4002 36.8 21.1002 37.2 21.2002 38C21.3002 38.8 21.6002 39.1 22.1002 39.1C22.6002 39 22.9002 38.7 22.8002 37.9Z" fill="#006DB1"/>
<path d="M26.3001 37.4L25.8001 37.6L26.2001 38.8L25.6001 39L24.6001 36L25.9001 35.6C26.6001 35.4 27.0001 35.6 27.1001 36.2C27.2001 36.6 27.1001 36.9 26.8001 37.1L27.9001 38.3L27.2001 38.5L26.3001 37.4ZM26.1001 36.9C26.4001 36.8 26.5001 36.6 26.4001 36.3C26.3001 36 26.1001 35.9 25.9001 36L25.3001 36.2L25.6001 37L26.1001 36.9Z" fill="#006DB1"/>
<path d="M27.8999 34.7L29.6999 33.6L29.9999 34L28.7999 34.7L29.1999 35.4L30.2999 34.7L30.5999 35.1L29.4999 35.8L29.9999 36.5L31.1999 35.8L31.4999 36.2L29.6999 37.3L27.8999 34.7Z" fill="#006DB1"/>
<path d="M30.8003 32.9L31.4003 32.3L33.1003 32.8C33.4003 32.9 33.9003 33.1 34.1003 33.2C34.0003 33.1 33.7003 32.8 33.5003 32.6L32.4003 31.5L32.8003 31.1L35.0003 33.3L34.4003 33.9L32.4003 33.3C32.2003 33.2 31.9003 33.1 31.7003 33C31.9003 33.1 32.1003 33.3 32.2003 33.5L33.4003 34.7L33.0003 35.1L30.8003 32.9Z" fill="#006DB1"/>
<path d="M33.5 29.7999L33.9 29.2L36.5 30.9L36.1 31.5L33.5 29.7999Z" fill="#006DB1"/>
<path d="M34.6001 28L34.9001 27.2L36.6001 27C36.9001 27 37.4001 26.9 37.6001 27C37.4001 27 37.1001 26.8 36.8001 26.7L35.4001 26L35.6001 25.4L38.5001 26.6L38.2001 27.4L36.2001 27.6C36.0001 27.6 35.7001 27.6 35.5001 27.6C35.7001 27.7 35.9001 27.7 36.2001 27.8L37.8001 28.4L37.6001 29L34.6001 28Z" fill="#006DB1"/>
<path d="M37.0003 22.2999C36.8003 22.2999 36.5003 22.4999 36.5003 22.7999C36.4003 23.2999 36.8003 23.6 37.6003 23.7C38.4003 23.8 38.8003 23.5 38.8003 23.1C38.8003 22.9 38.8003 22.7 38.7003 22.5H38.0003V23H37.5003L37.6003 21.7999L39.1003 22C39.2003 22.2 39.4003 22.7 39.3003 23.2C39.2003 24.1 38.6003 24.6 37.5003 24.5C36.4003 24.4 35.9003 23.6999 36.0003 22.7999C36.1003 22.0999 36.5003 21.8 36.9003 21.7L37.0003 22.2999Z" fill="#006DB1"/>
<path d="M4.4999 19.2C5.0999 19.2 5.5999 18.7 5.5999 18.1C5.5999 17.5 5.0999 17 4.4999 17C3.8999 17 3.3999 17.5 3.3999 18.1C3.4999 18.7 3.8999 19.2 4.4999 19.2Z" fill="#006DB1"/>
<path d="M37.4003 19.2C38.0003 19.2 38.5003 18.7 38.5003 18.1C38.5003 17.5 38.0003 17 37.4003 17C36.8003 17 36.3003 17.5 36.3003 18.1C36.3003 18.7 36.8003 19.2 37.4003 19.2Z" fill="#006DB1"/>
<path d="M10.5001 14.3C10.5001 14.3 10.5001 11.3 12.9001 11.3C15.7001 11.3 28.8001 11.3 29.3001 11.3C29.9001 11.3 31.8001 11.9 31.8001 14.2C31.8001 16.4 30.4001 17.2 29.4001 17.2C28.4001 17.2 24.2001 17.2 24.2001 17.2C24.2001 19.3 24.2001 30.8 24.2001 31.6C24.2001 32.4 23.8001 34.2 21.0001 34.2C18.2001 34.2 17.9001 32.4 17.9001 31.6C17.9001 31.3 17.9001 17.2 17.9001 17.2C15.2001 17.2 13.9001 17.2 12.9001 17.2C11.7001 17.3 10.4001 16.3 10.5001 14.3Z" fill="#D32210"/>
</g>
<defs>
<clipPath id="clip0_1_591">
<rect width="42" height="42" fill="white"/>
</clipPath>
</defs>
</svg>
